<svg width="24" height="24" viewBox="0 0 24 24" fill="none" xmlns="http://www.w3.org/2000/svg">
<path d="M6.58946 7.62954L6.58942 7.62993C6.5358 8.20187 6.48994 8.99596 6.54239 9.75619C6.59452 10.5119 6.74469 11.2522 7.09697 11.7017L7.27713 11.9315L7.23581 11.6425L7.2358 11.6425L7.2358 11.6424L7.23579 11.6424L7.23569 11.6417L7.2352 11.6377L7.23335 11.6204C7.23184 11.6047 7.22992 11.5808 7.22842 11.5491C7.22543 11.4857 7.22415 11.391 7.23132 11.2683C7.24566 11.0229 7.29381 10.6651 7.4298 10.2206C7.70163 9.33216 8.32536 8.09411 9.73685 6.71243C10.9018 5.57234 11.1743 4.01819 10.7647 2.84705L10.7647 2.84699C10.5327 2.18565 10.1103 1.6419 9.74602 1.26433C9.5844 1.0953 9.70868 0.818374 9.94317 0.828398C11.786 0.910644 14.7374 1.42157 15.9921 4.57052C16.5441 5.95609 16.5859 7.38997 16.3216 8.85333L16.3216 8.85344C16.3035 8.95434 16.28 9.07 16.2544 9.19626C16.1629 9.64821 16.0438 10.236 16.0438 10.7692C16.0438 11.1113 16.0923 11.4414 16.2348 11.7048C16.3795 11.9724 16.6185 12.166 16.984 12.2346C17.4984 12.3314 17.8851 12.1745 18.1683 11.9186C18.4483 11.6657 18.6249 11.3188 18.7328 11.0343L18.7328 11.0343C18.8004 10.8559 19.0346 10.8124 19.16 10.9534C20.7885 12.806 20.9297 14.9889 20.5909 16.8784C19.9386 20.5142 16.2505 23.1703 12.581 23.1703C10.284 23.1703 8.22546 22.5133 6.62357 21.2654C5.02211 20.0179 3.87265 18.1763 3.39883 15.7989C3.01779 13.8825 3.21228 10.0894 6.16652 7.41388L6.16683 7.4136C6.33459 7.26005 6.6125 7.39627 6.58946 7.62954Z" fill="url(#paint0_radial_345_12727)" stroke="#0C0C0C" stroke-width="0.15625"/>
<path d="M14.2708 14.5165C12.5664 12.3227 13.3295 9.81958 13.7476 8.82208C13.8039 8.69083 13.6539 8.56708 13.5358 8.6477C12.8026 9.14645 11.3008 10.3202 10.6014 11.9721C9.6545 14.2052 9.722 15.2983 10.2826 16.6333C10.6201 17.4377 10.2283 17.6083 10.0314 17.6383C9.84013 17.6683 9.66388 17.5408 9.52325 17.4077C9.11878 17.0193 8.8305 16.5258 8.69075 15.9827C8.66075 15.8665 8.50888 15.8346 8.4395 15.9302C7.9145 16.6558 7.64263 17.8202 7.6295 18.6433C7.58825 21.1877 9.69013 23.2502 12.2326 23.2502C15.437 23.2502 17.7714 19.7065 15.9301 16.744C15.3958 15.8815 14.8933 15.3171 14.2708 14.5165Z" fill="url(#paint1_radial_345_12727)"/>
<defs>
<radialGradient id="paint0_radial_345_12727" cx="0" cy="0" r="1" gradientUnits="userSpaceOnUse" gradientTransform="translate(11.6652 23.3068) rotate(-179.751) scale(13.2352 21.7163)">
<stop offset="0.314" stop-color="#FF9800"/>
<stop offset="0.662" stop-color="#FF6D00"/>
<stop offset="0.972" stop-color="#F44336"/>
</radialGradient>
<radialGradient id="paint1_radial_345_12727" cx="0" cy="0" r="1" gradientUnits="userSpaceOnUse" gradientTransform="translate(12.4089 10.1362) rotate(90.5787) scale(13.8481 10.4217)">
<stop offset="0.214" stop-color="#FFF176"/>
<stop offset="0.328" stop-color="#FFF27D"/>
<stop offset="0.487" stop-color="#FFF48F"/>
<stop offset="0.672" stop-color="#FFF7AD"/>
<stop offset="0.793" stop-color="#FFF9C4"/>
<stop offset="0.822" stop-color="#FFF8BD" stop-opacity="0.804"/>
<stop offset="0.863" stop-color="#FFF6AB" stop-opacity="0.529"/>
<stop offset="0.91" stop-color="#FFF38D" stop-opacity="0.209"/>
<stop offset="0.941" stop-color="#FFF176" stop-opacity="0"/>
</radialGradient>
</defs>
</svg>
