<svg width="24" height="24" viewBox="0 0 24 24" fill="none" xmlns="http://www.w3.org/2000/svg">
<mask id="mask0_4033_177" style="mask-type:luminance" maskUnits="userSpaceOnUse" x="3" y="1" width="18" height="22">
<path d="M18 16C18.0009 15.1557 17.8232 14.3207 17.4785 13.55C17.1338 12.7793 16.6299 12.0902 16 11.528C14.901 10.5424 13.4762 9.99816 12 10C10.5238 9.99816 9.09903 10.5424 8 11.528C7.37006 12.0902 6.86619 12.7793 6.5215 13.55C6.1768 14.3207 5.99908 15.1557 6 16C6 19.3135 8.6865 22 12 22C15.3135 22 18 19.3135 18 16Z" fill="#555555"/>
<path d="M8 2H16V11.528C14.901 10.5424 13.4762 9.99815 12 10C10.5238 9.99815 9.09903 10.5424 8 11.528V2Z" fill="#555555"/>
<path d="M8 2H16M8 2H4V7L8 10M8 2V10M16 2H20V7L16 10M16 2V10M8 10V11.528M16 10V11.528M8 11.528C9.09903 10.5424 10.5238 9.99815 12 10C13.5365 10 14.9385 10.5775 16 11.528M8 11.528C7.37006 12.0902 6.86619 12.7793 6.52149 13.55C6.17679 14.3207 5.99907 15.1557 6 16C6 19.3135 8.6865 22 12 22C15.3135 22 18 19.3135 18 16C18.0009 15.1557 17.8232 14.3207 17.4785 13.55C17.1338 12.7793 16.6299 12.0902 16 11.528" stroke="white" stroke-width="2" stroke-linecap="round" stroke-linejoin="round"/>
<path d="M16 2H20V7L16 10M8 2H4V7L8 10" stroke="white" stroke-width="2" stroke-linecap="round" stroke-linejoin="round"/>
<path d="M18 16C18.0009 15.1557 17.8232 14.3207 17.4785 13.55C17.1338 12.7793 16.6299 12.0902 16 11.528C14.901 10.5424 13.4762 9.99816 12 10C10.5238 9.99816 9.09903 10.5424 8 11.528C7.37006 12.0902 6.86619 12.7793 6.5215 13.55C6.1768 14.3207 5.99908 15.1557 6 16C6 19.3135 8.6865 22 12 22C15.3135 22 18 19.3135 18 16Z" fill="#555555" stroke="white" stroke-width="2" stroke-linecap="round" stroke-linejoin="round"/>
<path d="M8 2H16V11.528C14.901 10.5424 13.4762 9.99815 12 10C10.5238 9.99815 9.09903 10.5424 8 11.528V2Z" fill="#555555" stroke="white" stroke-width="2" stroke-linecap="round" stroke-linejoin="round"/>
<path d="M12 18.5V13.5L11 14M12 18.5H13M12 18.5H11" stroke="white" stroke-width="2" stroke-linecap="round" stroke-linejoin="round"/>
</mask>
<g mask="url(#mask0_4033_177)">
<path d="M0 0H24V24H0V0Z" fill="#0C0C0C"/>
</g>
</svg>
