<svg width="24" height="24" viewBox="0 0 24 24" fill="none" xmlns="http://www.w3.org/2000/svg">
<g clip-path="url(#clip0_4024_1316)">
<g clip-path="url(#clip1_4024_1316)">
<path d="M10.7156 10.7063C10.1932 10.71 9.67522 10.6106 9.19123 10.414C8.70723 10.2174 8.26675 9.92726 7.89496 9.56026C7.52317 9.19326 7.22737 8.75657 7.02448 8.27517C6.82158 7.79377 6.71557 7.27709 6.7125 6.75469C6.71378 6.42074 6.75789 6.08834 6.84375 5.76562C5.87098 5.86605 4.9695 6.32197 4.3121 7.04597C3.65469 7.76998 3.28763 8.71114 3.28125 9.68906C3.28432 10.2115 3.39033 10.7281 3.59323 11.2095C3.79612 11.6909 4.09192 12.1276 4.46371 12.4946C4.8355 12.8616 5.27598 13.1517 5.75998 13.3484C6.24397 13.545 6.76198 13.6443 7.28438 13.6406C8.16567 13.6439 9.02329 13.3556 9.72362 12.8206C10.424 12.2856 10.9277 11.5339 11.1562 10.6828C11.0099 10.6985 10.8628 10.7063 10.7156 10.7063Z" fill="url(#paint0_linear_4024_1316)" stroke="#72B9D5" stroke-width="0.15625" stroke-linecap="round" stroke-linejoin="round"/>
</g>
<g clip-path="url(#clip2_4024_1316)">
<g clip-path="url(#clip3_4024_1316)">
<path d="M12.5316 12.4312C12.5316 12.834 12.6916 13.2203 12.9764 13.5051C13.2612 13.79 13.6475 13.95 14.0503 13.95H20.1347V13.9453L20.2425 13.95C20.6451 13.945 21.0316 13.7913 21.3277 13.5184C21.6238 13.2456 21.8085 12.8729 21.8463 12.4721C21.8841 12.0712 21.7724 11.6706 21.5325 11.3472C21.2927 11.0238 20.9417 10.8005 20.5472 10.7203C20.5928 10.4354 20.5563 10.1435 20.442 9.87862C20.3277 9.61375 20.1404 9.3869 19.9019 9.22462C19.6634 9.06234 19.3836 8.97134 19.0953 8.96227C18.8069 8.95321 18.522 9.02644 18.2737 9.17342C17.9894 8.70993 17.5487 8.36343 17.0312 8.19653C16.5137 8.02962 15.9535 8.05332 15.452 8.26334C14.9504 8.47335 14.5405 8.85584 14.2964 9.34168C14.0522 9.82753 13.9899 10.3847 14.1206 10.9125H14.0503C13.6483 10.9125 13.2627 11.0718 12.978 11.3557C12.6934 11.6395 12.5328 12.0246 12.5316 12.4265V12.4312Z" fill="url(#paint1_linear_4024_1316)" stroke="#848B98" stroke-width="0.0390625" stroke-miterlimit="10"/>
</g>
<g clip-path="url(#clip4_4024_1316)">
<path d="M16.8675 11.8125L16.7503 11.8172C16.9752 10.9066 16.8673 9.94563 16.446 9.10764C16.0247 8.26964 15.3177 7.60981 14.4527 7.24718C13.5878 6.88455 12.6216 6.843 11.7287 7.13002C10.8358 7.41705 10.0748 8.01376 9.58311 8.81249C9.18507 8.57604 8.73158 8.44907 8.26864 8.44446C7.80569 8.43984 7.34976 8.55775 6.94709 8.78621C6.54442 9.01468 6.20934 9.34557 5.97583 9.74534C5.74232 10.1451 5.61869 10.5995 5.61748 11.0625C5.61872 11.2039 5.63126 11.345 5.65498 11.4844C4.964 11.6121 4.34585 11.9938 3.92223 12.5544C3.4986 13.1151 3.30017 13.814 3.36602 14.5136C3.43186 15.2132 3.7572 15.8628 4.278 16.3345C4.79879 16.8062 5.47731 17.0659 6.17998 17.0625L6.36748 17.0531V17.0625H16.8675C17.5637 17.0625 18.2314 16.7859 18.7236 16.2936C19.2159 15.8014 19.4925 15.1337 19.4925 14.4375C19.4925 13.7413 19.2159 13.0736 18.7236 12.5813C18.2314 12.089 17.5637 11.8125 16.8675 11.8125Z" fill="url(#paint2_linear_4024_1316)" stroke="#E6EFFC" stroke-width="0.234375" stroke-miterlimit="10"/>
</g>
</g>
</g>
<defs>
<linearGradient id="paint0_linear_4024_1316" x1="4.81406" y1="6.54375" x2="8.775" y2="13.4063" gradientUnits="userSpaceOnUse">
<stop stop-color="#86C3DB"/>
<stop offset="0.5" stop-color="#86C3DB"/>
<stop offset="1" stop-color="#5EAFCF"/>
</linearGradient>
<linearGradient id="paint1_linear_4024_1316" x1="14.9784" y1="8.51248" x2="18.7612" y2="15.0609" gradientUnits="userSpaceOnUse">
<stop stop-color="#9CA3AF"/>
<stop offset="0.5" stop-color="#9CA3AF"/>
<stop offset="1" stop-color="#6B7280"/>
</linearGradient>
<linearGradient id="paint2_linear_4024_1316" x1="7.89092" y1="8.23592" x2="14.13" y2="19.05" gradientUnits="userSpaceOnUse">
<stop stop-color="#F3F7FE"/>
<stop offset="0.5" stop-color="#F3F7FE"/>
<stop offset="1" stop-color="#DEEAFB"/>
</linearGradient>
<clipPath id="clip0_4024_1316">
<rect width="18.6938" height="11.5312" fill="white" transform="translate(3.1875 5.67188)"/>
</clipPath>
<clipPath id="clip1_4024_1316">
<rect width="8.0625" height="8.0625" fill="white" transform="translate(3.1875 5.67188)"/>
</clipPath>
<clipPath id="clip2_4024_1316">
<rect width="18.6562" height="10.4062" fill="white" transform="translate(3.22687 6.79688)"/>
</clipPath>
<clipPath id="clip3_4024_1316">
<rect width="9.38906" height="5.91094" fill="white" transform="translate(12.5081 8.0625)"/>
</clipPath>
<clipPath id="clip4_4024_1316">
<rect width="16.4062" height="10.4062" fill="white" transform="translate(3.22687 6.79688)"/>
</clipPath>
</defs>
</svg>
