<svg width="24" height="24" viewBox="0 0 24 24" fill="none" xmlns="http://www.w3.org/2000/svg">
<mask id="mask0_4024_1328" style="mask-type:luminance" maskUnits="userSpaceOnUse" x="0" y="0" width="24" height="14">
<path d="M0 0.5625H24V13.7812H0V0.5625Z" fill="white"/>
</mask>
<g mask="url(#mask0_4024_1328)">
<g clip-path="url(#clip0_4024_1328)">
<path d="M12 17.7375C13.6672 17.7375 15.0187 16.386 15.0187 14.7188C15.0187 13.0516 13.6672 11.7 12 11.7C10.3327 11.7 8.9812 13.0516 8.9812 14.7188C8.9812 16.386 10.3327 17.7375 12 17.7375Z" fill="url(#paint0_linear_4024_1328)" stroke="#F8AF18" stroke-width="0.215625" stroke-miterlimit="10"/>
<path d="M12 10.0359V8.25M12 21.1875V19.4062M15.3141 11.4047L16.575 10.1437M7.425 19.2938L8.69063 18.0281M8.69063 11.4047L7.425 10.1437M16.575 19.2938L15.3094 18.0281M7.32188 14.7234H5.53125M18.4688 14.7234H16.6875" stroke="#FBBF24" stroke-width="0.8625" stroke-miterlimit="10" stroke-linecap="round"/>
</g>
</g>
<path d="M6 15H18" stroke="#374151" stroke-width="0.84375" stroke-linecap="round" stroke-linejoin="round"/>
<path d="M10.35 18.8906C10.6062 18.8906 10.814 18.9656 10.9734 19.1156C11.1328 19.2656 11.2109 19.4687 11.2078 19.725C11.2118 19.8449 11.19 19.9643 11.1439 20.0751C11.0978 20.1859 11.0285 20.2855 10.9406 20.3672C10.7625 20.5328 10.5281 20.6156 10.2375 20.6156C9.94685 20.6156 9.70466 20.525 9.51091 20.3437C9.28904 20.1312 9.1781 19.8078 9.1781 19.3734C9.1781 18.9672 9.26716 18.6516 9.44529 18.4266C9.62341 18.2016 9.88279 18.0891 10.2234 18.0891C10.4319 18.0806 10.6381 18.1362 10.814 18.2484C10.9708 18.3565 11.0826 18.5182 11.1281 18.7031L10.5422 18.7359C10.4953 18.6094 10.3875 18.5484 10.2187 18.5484C10.1589 18.5447 10.0991 18.5556 10.0444 18.5801C9.98966 18.6045 9.94172 18.642 9.90466 18.6891C9.83279 18.7828 9.78904 18.9344 9.77341 19.1437C9.90779 18.975 10.1 18.8906 10.35 18.8906ZM9.90466 19.9969C9.94427 20.0403 9.99291 20.0746 10.0472 20.0973C10.1014 20.1199 10.16 20.1305 10.2187 20.1281C10.2717 20.1312 10.3247 20.1228 10.3741 20.1034C10.4235 20.0839 10.468 20.054 10.5047 20.0156C10.5727 19.9379 10.6094 19.8377 10.6078 19.7344C10.6096 19.6822 10.6006 19.6303 10.5812 19.5819C10.5618 19.5335 10.5326 19.4896 10.4953 19.4531C10.4572 19.417 10.4123 19.3889 10.3632 19.3703C10.3141 19.3518 10.2618 19.3433 10.2094 19.3453C10.1576 19.3434 10.1061 19.352 10.0577 19.3705C10.0094 19.389 9.96531 19.4171 9.9281 19.4531C9.85428 19.5302 9.81241 19.6324 9.81091 19.7391C9.81292 19.833 9.84588 19.9236 9.90466 19.9969ZM12.4828 19.8422H11.5172V19.3781H12.4828V19.8422ZM14.489 18.375C14.714 18.5875 14.8265 18.9094 14.8265 19.3406C14.8265 19.7469 14.7375 20.0625 14.5594 20.2875C14.3812 20.5125 14.1203 20.625 13.7765 20.625C13.5422 20.625 13.3453 20.5719 13.1859 20.4656C13.0312 20.3585 12.9211 20.1984 12.8765 20.0156L13.4578 19.9781C13.5047 20.1047 13.6125 20.1656 13.7812 20.1656C13.841 20.169 13.9007 20.1579 13.9553 20.1335C14.01 20.109 14.058 20.0718 14.0953 20.025C14.1703 19.9312 14.2156 19.7812 14.2312 19.575C14.0906 19.7406 13.8969 19.8234 13.65 19.8234C13.3937 19.8234 13.1875 19.7484 13.0312 19.5984C12.875 19.4484 12.7953 19.2469 12.7922 18.9937C12.7882 18.8738 12.81 18.7544 12.8561 18.6437C12.9022 18.5329 12.9715 18.4333 13.0594 18.3516C13.2375 18.1859 13.4719 18.1031 13.7625 18.1031C14.0531 18.1031 14.2953 18.1937 14.489 18.375ZM13.7906 19.3734C13.8424 19.3756 13.894 19.3672 13.9424 19.3486C13.9907 19.3301 14.0348 19.3018 14.0719 19.2656C14.1468 19.1874 14.1887 19.0833 14.189 18.975C14.1874 18.8824 14.1544 18.7932 14.0953 18.7219C14.0561 18.6779 14.0075 18.6433 13.9532 18.6206C13.8988 18.5978 13.8401 18.5876 13.7812 18.5906C13.7287 18.5875 13.676 18.5955 13.6268 18.6141C13.5775 18.6327 13.5327 18.6614 13.4953 18.6984C13.4252 18.7749 13.3881 18.876 13.3922 18.9797C13.3893 19.0322 13.3975 19.0848 13.416 19.134C13.4346 19.1832 13.4632 19.228 13.5 19.2656C13.5386 19.3023 13.5843 19.3308 13.6342 19.3493C13.6842 19.3679 13.7374 19.3761 13.7906 19.3734Z" fill="#374251"/>
<defs>
<linearGradient id="paint0_linear_4024_1328" x1="10.4906" y1="12.1031" x2="13.5093" y2="17.3344" gradientUnits="userSpaceOnUse">
<stop stop-color="#FBBF24"/>
<stop offset="0.5" stop-color="#FBBF24"/>
<stop offset="1" stop-color="#F59E0B"/>
</linearGradient>
<clipPath id="clip0_4024_1328">
<rect width="13.8" height="13.8" fill="white" transform="translate(5.09998 7.81876)"/>
</clipPath>
</defs>
</svg>
